<svg width="23.879883" height="23.256104" viewBox="0 0 23.8799 23.2561" fill="none" xmlns="http://www.w3.org/2000/svg" xmlns:xlink="http://www.w3.org/1999/xlink">
	<desc>
			Created with Pixso.
	</desc>
	<defs/>
	<path id="Vector" d="M23.7446 6.28418C23.6758 6.18652 23.5845 6.10669 23.4785 6.05176C23.3726 5.99658 23.2549 5.96777 23.1353 5.96777L7.21826 5.96777L6.01318 1.81274C5.54053 0.176514 4.41797 0 3.95752 0L0.744629 0C0.333008 0 0 0.333496 0 0.744629C0 1.15601 0.333496 1.4895 0.744629 1.4895L3.95703 1.4895C4.05859 1.4895 4.36865 1.4895 4.58008 2.22046L8.7251 17.4531C8.81494 17.7747 9.10791 17.9966 9.44189 17.9966L19.5664 17.9966C19.8809 17.9966 20.1611 17.7998 20.2671 17.5039L23.8359 6.96436C23.918 6.73608 23.8838 6.48193 23.7446 6.28418L23.7446 6.28418ZM19.0425 16.5076L10.0073 16.5076L7.63672 7.45752L22.0762 7.45752L19.0425 16.5076ZM17.5649 19.5061C16.5293 19.5061 15.6899 20.3452 15.6899 21.3811C15.6899 22.4167 16.5293 23.2561 17.5649 23.2561C18.6011 23.2561 19.4399 22.4167 19.4399 21.3811C19.4399 20.3452 18.6011 19.5061 17.5649 19.5061ZM10.8149 19.5061C9.7793 19.5061 8.93994 20.3452 8.93994 21.3811C8.93994 22.4167 9.7793 23.2561 10.8149 23.2561C11.8511 23.2561 12.6899 22.4167 12.6899 21.3811C12.6899 20.3452 11.8511 19.5061 10.8149 19.5061Z" fill="#127BF1" fill-opacity="1.000000" fill-rule="nonzero"/>
</svg>
