<svg width="60.000000" height="60.000000" viewBox="0 0 60 60" fill="none" xmlns="http://www.w3.org/2000/svg" xmlns:xlink="http://www.w3.org/1999/xlink">
	<desc>
			Created with Pixso.
	</desc>
	<defs>
		<clipPath id="clip0_104">
			<rect id="Frame 23" width="60.000000" height="60.000000" fill="white" fill-opacity="0"/>
		</clipPath>
	</defs>
	<g clip-path="url(#clip0_104)">
		<path id="Vector" d="M41.3086 12.1525C40.7002 12.1525 40.1274 12.2957 39.6118 12.5391L39.6118 8.90924C39.6118 6.76141 37.8647 5.01451 35.7173 5.01451C35.1084 5.01451 34.5356 5.1577 34.0205 5.40112L34.0205 5.0002C34.0205 2.85237 32.2734 1.10547 30.1255 1.10547C27.9775 1.10547 26.231 2.85237 26.231 5.0002L26.231 5.40112C25.7153 5.15054 25.1426 5.01451 24.5342 5.01451C22.3862 5.01451 20.6392 6.76141 20.6392 8.90924L20.6392 20.0493C20.1025 19.7773 19.4937 19.6269 18.8564 19.6269C16.752 19.6269 15.0479 21.338 15.0479 23.4357L15.0479 34.3037C15.0479 37.9335 16.6157 41.3701 19.3579 43.747L20.6392 44.8567L20.6392 60.5645C20.6392 61.173 21.1333 61.6671 21.7417 61.6671C22.3506 61.6671 22.8442 61.173 22.8442 60.5645L22.8442 44.3556C22.8442 44.0334 22.7085 43.7327 22.4648 43.5251L20.8042 42.086C18.5488 40.1243 17.2529 37.2892 17.2529 34.3037L17.2529 23.4357C17.2529 22.5479 17.9761 21.8248 18.8638 21.8248C19.8447 21.8248 20.6465 22.6267 20.6465 23.6075L20.6465 29.1489C20.6465 29.7575 21.1406 30.2515 21.749 30.2515C22.3574 30.2515 22.8516 29.7575 22.8516 29.1489L22.8516 8.90924C22.8516 7.97136 23.6104 7.21246 24.5483 7.21246C25.4863 7.21246 26.2451 7.97136 26.2451 8.90924L26.2451 22.326C26.2451 22.4406 26.2593 22.5479 26.2954 22.6553C26.4312 23.1064 26.8535 23.4286 27.3477 23.4286C27.8418 23.4286 28.2568 23.1064 28.4004 22.6553C28.4287 22.5551 28.4502 22.4406 28.4502 22.326L28.4502 5.0002C28.4502 4.06232 29.209 3.30341 30.147 3.30341C31.085 3.30341 31.8438 4.06232 31.8438 5.0002L31.8438 22.9918C31.8438 23.6004 32.3379 24.0944 32.9463 24.0944C33.5552 24.0944 34.0488 23.6004 34.0488 22.9918L34.0488 8.90924C34.0488 7.97136 34.8081 7.21246 35.7456 7.21246C36.6836 7.21246 37.4424 7.97136 37.4424 8.90924L37.4424 23.808C37.4424 24.4166 37.9365 24.9106 38.5449 24.9106C39.1538 24.9106 39.6475 24.4166 39.6475 23.808L39.6475 16.0472C39.6475 15.1093 40.4067 14.3504 41.3442 14.3504C42.2822 14.3504 43.041 15.1093 43.041 16.0472L43.041 34.2608C43.041 38.134 41.7021 41.9214 39.2612 44.9283C39.1035 45.1216 39.0176 45.3722 39.0176 45.6228L39.0176 60.5788C39.0176 61.1873 39.5117 61.6814 40.1201 61.6814C40.7285 61.6814 41.2227 61.1873 41.2227 60.5788L41.2227 46.0022C43.8218 42.6588 45.2461 38.4991 45.2461 34.2608L45.2461 16.0472C45.2461 13.8994 43.4995 12.1525 41.3516 12.1525L41.3086 12.1525Z" fill="#333333" fill-opacity="1.000000" fill-rule="nonzero"/>
		<path id="Vector" d="M27.4194 31.9489C28.0635 31.9489 28.5933 31.4262 28.5933 30.7747C28.5933 30.1232 28.0708 29.6006 27.4194 29.6006C26.7676 29.6006 26.2451 30.1232 26.2451 30.7747C26.2451 31.4262 26.7676 31.9489 27.4194 31.9489Z" fill="#333333" fill-opacity="1.000000" fill-rule="nonzero"/>
		<path id="Vector" d="M34.8442 50.9556C34.1997 50.9556 33.6699 51.4782 33.6699 52.1297C33.6699 52.7812 34.1924 53.3039 34.8442 53.3039C35.4956 53.3039 36.0181 52.7812 36.0181 52.1297C36.0181 51.4782 35.4956 50.9556 34.8442 50.9556Z" fill="#333333" fill-opacity="1.000000" fill-rule="nonzero"/>
		<path id="Vector" d="M29.8901 54.2063C29.2456 54.2063 28.7158 54.7289 28.7158 55.3804C28.7158 56.032 29.2383 56.5546 29.8901 56.5546C30.5415 56.5546 31.064 56.032 31.064 55.3804C31.064 54.7289 30.5415 54.2063 29.8901 54.2063Z" fill="#333333" fill-opacity="1.000000" fill-rule="nonzero"/>
		<path id="Vector" d="M27.563 48.7444C26.9185 48.7444 26.3887 49.267 26.3887 49.9185C26.3887 50.57 26.9111 51.0927 27.563 51.0927C28.2144 51.0927 28.7368 50.57 28.7368 49.9185C28.7368 49.267 28.2144 48.7444 27.563 48.7444Z" fill="#333333" fill-opacity="1.000000" fill-rule="nonzero"/>
		<path id="Vector" d="M39.6118 38.5567C39.6118 37.9124 39.0894 37.3826 38.438 37.3826C37.7861 37.3826 37.2637 37.9052 37.2637 38.5567C37.2637 39.2082 37.7861 39.7309 38.438 39.7309C39.0894 39.7309 39.6118 39.2082 39.6118 38.5567Z" fill="#333333" fill-opacity="1.000000" fill-rule="nonzero"/>
		<path id="Vector" d="M32.4604 42.0503C31.8159 42.0503 31.2861 42.5729 31.2861 43.2244C31.2861 43.8759 31.8086 44.3986 32.4604 44.3986C33.1118 44.3986 33.6343 43.8759 33.6343 43.2244C33.6343 42.5729 33.1118 42.0503 32.4604 42.0503Z" fill="#333333" fill-opacity="1.000000" fill-rule="nonzero"/>
		<path id="Vector" d="M26.7681 39.0496C26.7681 38.4053 26.2456 37.8755 25.5942 37.8755C24.9424 37.8755 24.4199 38.3981 24.4199 39.0496C24.4199 39.7011 24.9424 40.2238 25.5942 40.2238C26.2456 40.2238 26.7681 39.7011 26.7681 39.0496Z" fill="#333333" fill-opacity="1.000000" fill-rule="nonzero"/>
		<path id="Vector" d="M32.9751 26.521C32.3306 26.521 31.8008 27.0436 31.8008 27.6951C31.8008 28.3466 32.3232 28.8693 32.9751 28.8693C33.6265 28.8693 34.1489 28.3466 34.1489 27.6951C34.1489 27.0436 33.6265 26.521 32.9751 26.521Z" fill="#333333" fill-opacity="1.000000" fill-rule="nonzero"/>
		<path id="Vector" d="M32.2305 34.9984C32.2305 35.6427 32.7529 36.1725 33.4048 36.1725C34.0562 36.1725 34.5786 35.6499 34.5786 34.9984C34.5786 34.3469 34.0562 33.8242 33.4048 33.8242C32.7529 33.8242 32.2305 34.3469 32.2305 34.9984Z" fill="#333333" fill-opacity="1.000000" fill-rule="nonzero"/>
		<path id="Vector" d="M9.57129 25.6479C9.1416 25.2183 8.44727 25.2183 8.01758 25.6479C6.48535 27.18 5.64062 29.2204 5.64062 31.3897C5.64062 33.559 6.48535 35.5995 8.01758 37.1316C8.23242 37.3463 8.51172 37.4537 8.79785 37.4537C9.08447 37.4537 9.36377 37.3463 9.57812 37.1316C10.0078 36.702 10.0078 36.0075 9.57812 35.578C8.46143 34.4611 7.8457 32.972 7.8457 31.3897C7.8457 29.8075 8.46143 28.3183 9.57812 27.2014C10.0078 26.7719 10.0078 26.0774 9.57812 25.6479L9.57129 25.6479Z" fill="#333333" fill-opacity="1.000000" fill-rule="nonzero"/>
		<path id="Vector" d="M51.4111 25.6479C50.9814 26.0774 50.9814 26.7719 51.4111 27.2014C52.5278 28.3183 53.1436 29.8075 53.1436 31.3897C53.1436 32.972 52.5278 34.4611 51.4111 35.578C50.9814 36.0075 50.9814 36.702 51.4111 37.1316C51.626 37.3463 51.9053 37.4537 52.1914 37.4537C52.478 37.4537 52.7568 37.3463 52.9717 37.1316C54.5039 35.5995 55.3486 33.559 55.3486 31.3897C55.3486 29.2204 54.5039 27.18 52.9717 25.6479C52.542 25.2183 51.8477 25.2183 51.418 25.6479L51.4111 25.6479Z" fill="#333333" fill-opacity="1.000000" fill-rule="nonzero"/>
	</g>
</svg>
