<svg width="277.000000" height="41.000000" viewBox="0 0 277 41" fill="none" xmlns="http://www.w3.org/2000/svg" xmlns:xlink="http://www.w3.org/1999/xlink">
	<desc>
			Created with Pixso.
	</desc>
	<defs>
		<clipPath id="clip0_382">
			<rect id="__UV TREAT logo 2" width="277.000000" height="41.000000" fill="white" fill-opacity="0"/>
		</clipPath>
	</defs>
	<rect id="__UV TREAT logo 2" width="277.000000" height="41.000000" fill="#FFFFFF" fill-opacity="0"/>
	<g clip-path="url(#clip0_382)">
		<path id="Vector" d="M84.1094 8.87109L96.6865 8.87109L96.6865 40.5498L105.094 40.5498L105.094 8.87109L117.773 8.87109L117.773 0.409668L84.1094 0.409668L84.1094 8.87109Z" fill="#333333" fill-opacity="1.000000" fill-rule="nonzero"/>
		<path id="Vector" d="M156.631 4.57349C155.401 3.30103 153.897 2.30347 152.188 1.58105C150.479 0.858887 148.668 0.480469 146.754 0.480469L120.302 0.480469L120.302 40.5862L128.572 40.5862L128.572 28.4099L138.278 28.4099L148.429 40.6895L159.365 40.6895L148.941 28.2725C150.104 28.1003 151.197 27.7908 152.257 27.3438C153.931 26.6213 155.401 25.624 156.666 24.3513C157.93 23.0786 158.955 21.5652 159.639 19.8799C160.356 18.1943 160.732 16.3713 160.732 14.4109C160.732 12.519 160.356 10.696 159.604 9.01074C158.853 7.3252 157.862 5.81177 156.631 4.57349ZM151.881 16.5435C151.573 17.197 151.197 17.8162 150.685 18.332C150.206 18.8479 149.591 19.2263 148.907 19.5359C148.224 19.8455 147.506 19.9829 146.72 19.9829L128.572 19.9829L128.572 8.90747L146.72 8.90747C147.506 8.90747 148.224 9.04517 148.907 9.35474C149.591 9.62988 150.206 10.0425 150.685 10.5242C151.197 11.04 151.573 11.6248 151.881 12.2783C152.154 12.9319 152.291 13.6196 152.291 14.4109C152.291 15.1675 152.154 15.8899 151.881 16.5435Z" fill="#333333" fill-opacity="1.000000" fill-rule="nonzero"/>
		<path id="Vector" d="M172.488 31.0232C171.771 30.301 171.395 29.4409 171.395 28.3748L171.395 24.7976L201.06 24.7976L201.06 16.3362L171.395 16.3362L171.395 12.0022C171.531 11.0735 171.976 10.3513 172.659 9.73218C173.343 9.11304 174.129 8.83789 175.086 8.83789L201.401 8.83789L201.401 0.342041L175.086 0.342041C173.479 0.342041 171.941 0.651611 170.506 1.23633C169.071 1.82104 167.806 2.64648 166.747 3.67847C165.687 4.74463 164.799 5.94849 164.149 7.29004C163.466 8.66577 163.09 10.1792 163.021 11.7959C163.021 12.5869 163.021 13.4126 163.021 14.2036C163.021 15.9922 163.021 17.7808 163.021 19.5693C163.021 21.4612 163.021 23.3186 163.021 25.2104C163.021 27.2397 162.919 29.269 163.397 31.2297C163.944 33.3965 165.038 35.3916 166.61 36.9736C167.669 38.04 168.968 38.9343 170.438 39.5535C171.907 40.1726 173.514 40.5166 175.154 40.5166L201.47 40.5166L201.47 32.0896L175.154 32.0896C174.095 32.0896 173.24 31.7456 172.488 31.0232Z" fill="#333333" fill-opacity="1.000000" fill-rule="nonzero"/>
		<path id="Vector" d="M237.937 6.22534C236.16 4.43677 234.007 2.99219 231.615 1.92603C226.762 -0.172363 220.883 -0.172363 216.03 1.92603C213.604 2.95776 211.485 4.40234 209.708 6.22534C207.896 8.01392 206.46 10.1809 205.436 12.5886C204.41 15.0308 203.863 17.6792 203.863 20.4309L203.863 40.6558L212.271 40.6558L212.271 29.2708L235.408 29.2708L235.408 40.6558L243.815 40.6558L243.815 20.4309C243.815 17.6792 243.303 15.0308 242.243 12.5886C241.15 10.1809 239.714 8.01392 237.937 6.22534ZM235.374 20.8093L212.236 20.8093L212.236 20.3621C212.236 18.78 212.544 17.2666 213.159 15.8906C213.774 14.4805 214.595 13.2422 215.654 12.2102C216.679 11.1785 217.944 10.3186 219.311 9.73389C222.079 8.53003 225.497 8.53003 228.299 9.73389C229.701 10.353 230.965 11.1785 231.99 12.2102C233.016 13.2422 233.87 14.4805 234.485 15.8906C235.101 17.2666 235.408 18.78 235.408 20.3621L235.408 20.8093L235.374 20.8093Z" fill="#333333" fill-opacity="1.000000" fill-rule="nonzero"/>
		<path id="Vector" d="M243.336 0.409668L243.336 8.87109L255.914 8.87109L255.914 40.5498L264.321 40.5498L264.321 8.87109L277 8.87109L277 0.409668L243.336 0.409668Z" fill="#333333" fill-opacity="1.000000" fill-rule="nonzero"/>
		<path id="Vector" d="M30.9629 0L30.9629 1.71973C31.5439 2.33887 32.0908 2.99243 32.5693 3.68042C33.082 4.36841 33.5259 5.125 33.9019 5.88159C34.7222 7.53271 35.5425 9.18384 36.3628 10.8347C36.0552 9.76855 36.1235 8.59888 36.5337 7.53271C37.1831 5.77856 38.1401 4.19629 39.3018 2.75171C39.7803 2.13257 40.3271 1.58228 40.9082 1.03198L40.9082 0L30.9629 0Z" fill="#127BF1" fill-opacity="1.000000" fill-rule="nonzero"/>
		<path id="Vector" d="M29.8018 37.1477C28.8447 35.8062 28.1274 34.396 27.478 33.0544L27.2388 32.573C27.1021 32.3323 26.9995 32.1257 26.897 31.885C26.6577 31.4036 26.3843 30.9219 26.145 30.4404C24.5044 31.4036 22.5566 31.9539 20.4375 31.9539C14.6274 31.9539 9.91113 27.792 9.91113 22.667L9.91113 0L0 0L0 22.667C0 32.7793 9.15918 41 20.4375 41C24.1968 41 27.7515 40.0713 30.793 38.4546C30.417 38.042 30.1094 37.5947 29.8018 37.1477Z" fill="#127BF1" fill-opacity="1.000000" fill-rule="nonzero"/>
		<path id="Vector" d="M60.1514 0.0688477C58.0669 0.0688477 55.9819 0.0688477 53.8975 0.0688477C48.1216 0.0688477 42.6533 3.78345 40.7051 8.97729C40.6025 9.25244 40.5684 9.63086 40.7051 9.87158C42.209 12.8984 43.7129 15.9253 45.2505 18.9866C45.2847 19.0554 45.3872 19.1243 45.6265 19.3306C46.1392 18.333 46.6177 17.4387 47.0962 16.51C48.019 14.687 48.8735 12.8296 49.8301 11.0066C50.7188 9.28687 52.2568 8.25513 54.2734 8.15186C55.0933 8.11743 55.9478 8.08301 56.7681 8.08301C57.896 8.08301 59.0581 8.11743 60.1855 8.11743C60.3564 8.11743 60.5273 8.2207 60.8691 8.32373C60.3223 9.49341 59.8438 10.594 59.2974 11.6602C56.3921 17.4731 53.4531 23.2517 50.5137 29.0647C49.5225 31.0596 47.8481 32.1602 45.5581 32.1602L45.5239 32.1602C43.2002 32.1602 41.4912 31.0251 40.4658 29.0303C36.9116 21.9446 33.3574 14.8247 29.8027 7.70459C27.5815 3.0957 22.4551 0 17.0552 0C16.8159 0 16.5767 0 16.3374 0.0344238C16.2349 0.0344238 16.1323 0.103271 15.9272 0.171875C16.8843 2.09814 17.8413 4.02441 18.7979 5.95044C22.9678 14.2056 27.1372 22.4607 31.2725 30.75C32.332 32.917 33.3574 35.084 35.2026 36.7693C38.2104 39.521 41.6279 40.8967 45.353 40.8967C46.7544 40.8967 48.1899 40.6904 49.6934 40.312C53.7949 39.2803 56.8022 36.8381 58.6138 33.2266C63.3643 23.8708 68.0122 14.4807 72.6943 5.09058C73.4805 3.5083 74.2666 1.92627 75.1206 0.171875C74.54 0.137695 74.1641 0.103271 73.8223 0.103271C69.2769 0.0688477 64.731 0.0688477 60.1514 0.0688477Z" fill="#127BF1" fill-opacity="1.000000" fill-rule="nonzero"/>
	</g>
</svg>
