<svg width="24.000000" height="24.000000" viewBox="0 0 24 24" fill="none" xmlns="http://www.w3.org/2000/svg" xmlns:xlink="http://www.w3.org/1999/xlink">
	<desc>
			Created with Pixso.
	</desc>
	<defs>
		<clipPath id="clip0_40">
			<rect id="line-md:account" width="24.000000" height="24.000000" fill="white" fill-opacity="0"/>
		</clipPath>
	</defs>
	<rect id="line-md:account" width="24.000000" height="24.000000" fill="#FFFFFF" fill-opacity="0"/>
	<g clip-path="url(#clip0_40)">
		<path id="Vector (Stroke)" d="M12 3.75C10.2051 3.75 8.75 5.20508 8.75 7C8.75 8.79492 10.2051 10.25 12 10.25C13.7949 10.25 15.25 8.79492 15.25 7C15.25 5.20508 13.7949 3.75 12 3.75ZM7.25 7C7.25 4.37671 9.37646 2.25 12 2.25C14.6235 2.25 16.75 4.37671 16.75 7C16.75 9.62329 14.6235 11.75 12 11.75C9.37646 11.75 7.25 9.62329 7.25 7ZM10 14.75C7.10059 14.75 4.75 17.1006 4.75 20L4.75 21C4.75 21.4143 4.41406 21.75 4 21.75C3.58594 21.75 3.25 21.4143 3.25 21L3.25 20C3.25 16.272 6.27197 13.25 10 13.25L14 13.25C17.728 13.25 20.75 16.272 20.75 20L20.75 21C20.75 21.4143 20.4141 21.75 20 21.75C19.5859 21.75 19.25 21.4143 19.25 21L19.25 20C19.25 17.1006 16.8994 14.75 14 14.75L10 14.75Z" fill="#127BF1" fill-opacity="1.000000" fill-rule="evenodd"/>
	</g>
</svg>
