<svg width="60.000000" height="60.000000" viewBox="0 0 60 60" fill="none" xmlns="http://www.w3.org/2000/svg" xmlns:xlink="http://www.w3.org/1999/xlink">
	<desc>
			Created with Pixso.
	</desc>
	<defs>
		<clipPath id="clip0_130">
			<rect id="Frame 25" width="60.000000" height="60.000000" fill="white" fill-opacity="0"/>
		</clipPath>
	</defs>
	<g clip-path="url(#clip0_130)">
		<path id="Vector" d="M30.0015 7L30.0396 7C33.6841 7.0097 37.3188 7.88373 40.563 9.5668C42.9785 10.8195 45.1816 12.5205 47 14.5123C48.9355 16.6319 50.4673 19.0949 51.5068 21.8319C52.4819 24.3997 52.981 27.1628 52.9956 29.9152C53.0015 29.9826 53.0015 30.0501 52.9956 30.1176C52.9902 31.6872 52.8271 33.2517 52.5054 34.7728C51.8228 37.9943 50.4219 41.0911 48.4492 43.7315C45.9839 47.0323 42.6108 49.6665 38.8228 51.2449C36.4297 52.242 33.8809 52.8217 31.2925 52.9642C30.8701 52.9877 30.4468 52.9995 30.0234 53C30.0156 53 30.0088 53 30.001 53C29.9932 53 29.9854 53 29.9775 52.9995C26.8096 52.9959 23.6538 52.3458 20.7285 51.0516C17.1855 49.4841 14.0181 46.9622 11.7178 43.9508C8.71533 40.0193 7.00391 35.1101 7 30.0118C7 30.0077 7 30.0041 7 30C7 29.9964 7 29.9933 7 29.9898C7 29.8574 7.00098 29.7245 7.00342 29.5922C7.07178 25.7153 8.16943 21.8554 9.99854 18.6447C11.7388 15.5877 14.1797 12.9432 17.1143 10.9509C19.9346 9.03577 23.2158 7.77075 26.4663 7.27039C27.6338 7.09097 28.8101 6.99899 30.0005 7L30.0015 7ZM46.1787 42.8458L40.7041 42.8458C39.1929 45.572 37.1982 48.0351 34.9062 50.0724C35.5376 49.919 36.1606 49.736 36.7739 49.5229C40.314 48.2932 43.4502 46.1174 45.8633 43.2332C45.9697 43.1054 46.0752 42.9761 46.1787 42.8458ZM19.29 42.8458L13.8262 42.8458C14.4697 43.6564 15.1729 44.4185 15.9297 45.1223C17.9121 46.9673 20.2349 48.4123 22.7817 49.3624C23.5298 49.641 24.2905 49.8746 25.0605 50.0632C23.2568 48.47 21.6548 46.6234 20.3062 44.5477C19.9468 43.9952 19.6074 43.4254 19.29 42.8458ZM28.8311 42.8458L21.9971 42.8458C23.6323 45.4821 25.7632 47.7994 28.2749 49.6553C28.4341 49.7728 28.5938 49.8878 28.7554 50.0018L28.8311 50.0544L28.8311 42.8458ZM37.9932 42.8458L31.1709 42.8458L31.1709 50.0544C31.2905 49.9706 31.4097 49.8863 31.5283 49.8004C31.5283 49.8004 31.7114 49.6681 31.8452 49.5674C34.2788 47.7452 36.3735 45.4545 37.9932 42.8458ZM16.0386 31.1699L9.37402 31.1699C9.47461 32.9522 9.80225 34.7201 10.3555 36.4124C10.8228 37.84 11.4492 39.2143 12.2153 40.5059L18.1509 40.5059C18.0083 40.1736 17.874 39.842 17.748 39.5107C16.7354 36.8525 16.1626 34.024 16.0386 31.1699ZM41.6221 31.1699L31.1709 31.1699L31.1709 40.5059L39.2759 40.5059C40.0889 38.8116 40.7109 37.0155 41.1108 35.1505C41.3926 33.839 41.5625 32.5065 41.6221 31.1699ZM50.6284 31.1699L43.9653 31.1699C43.8306 34.2315 43.1787 37.2736 42.0127 40.1226C41.96 40.2509 41.9062 40.3786 41.8516 40.5059L47.79 40.5059C49.084 38.3163 49.9854 35.8721 50.3989 33.3058C50.5122 32.5985 50.5889 31.8855 50.6284 31.1699ZM20.7178 40.5059L28.8311 40.5059L28.8311 31.1699L18.3911 31.1699C18.5151 33.8492 19.0698 36.5106 20.0615 39.0043C20.2632 39.5123 20.4829 40.0132 20.7178 40.5059ZM18.1538 19.4941L12.2251 19.4941C11.269 21.101 10.5259 22.8378 10.0391 24.6538C9.67383 26.0179 9.45264 27.4199 9.37354 28.8301L16.0376 28.8301C16.1372 26.5004 16.5361 24.179 17.2422 21.9444C17.5044 21.1123 17.8096 20.2945 18.1538 19.4941ZM39.2783 19.4941L31.1709 19.4941L31.1709 28.8301L41.6152 28.8301C41.4531 25.6039 40.6606 22.412 39.2783 19.4941ZM47.791 19.4941L41.8452 19.4941C42.3062 20.5639 42.6973 21.6653 43.0122 22.7918C43.5625 24.7591 43.8799 26.7892 43.9668 28.8301L50.6265 28.8301C50.5103 26.7928 50.0977 24.7744 49.397 22.87C48.9668 21.6996 48.4282 20.5695 47.791 19.4941ZM18.3926 28.8301L28.8311 28.8301L28.8311 19.4941L20.7183 19.4941C20.561 19.8223 20.4116 20.1534 20.27 20.4877C19.1562 23.1169 18.5283 25.9592 18.3926 28.8301ZM25.0742 9.94247C22.8525 10.4883 20.7163 11.3991 18.791 12.6462C16.9155 13.8612 15.2397 15.394 13.8408 17.1543L19.3008 17.1543C20.7964 14.4469 22.7598 11.9966 25.0742 9.94247ZM31.1709 9.94553L31.1709 17.1543L38.0049 17.1543C36.272 14.3595 33.9614 11.9149 31.2871 10.0268C31.248 9.99973 31.21 9.97263 31.1709 9.94553ZM34.9141 9.92816C37.2271 11.9792 39.1953 14.4331 40.6982 17.1543L46.1782 17.1543C44.7319 15.3357 42.9702 13.7451 40.9482 12.4791C39.0903 11.3158 37.0532 10.4505 34.9141 9.92816ZM28.8311 17.1543L28.8311 9.94553C28.8193 9.9537 28.8076 9.96188 28.7954 9.97058C26.0684 11.8811 23.7461 14.3539 22.0029 17.1543L28.8311 17.1543Z" fill="#333333" fill-opacity="1.000000" fill-rule="evenodd"/>
	</g>
</svg>
