<svg width="43.248047" height="14.542969" viewBox="0 0 43.248 14.543" fill="none" xmlns="http://www.w3.org/2000/svg" xmlns:xlink="http://www.w3.org/1999/xlink">
	<desc>
			Created with Pixso.
	</desc>
	<defs/>
	<path id="Item ⏵ Link ⏵ Testimonials" d="M3.89453 14.543L4.82422 14.543L4.82422 13.2656C7.26953 13.1133 8.66016 11.7305 8.66016 9.875C8.66016 7.77734 6.79297 6.96484 5.3125 6.60156L4.82422 6.47656L4.82422 2.83594C5.93359 2.95312 6.69531 3.55469 6.80859 4.51172L8.5 4.51172C8.44922 2.75 6.98047 1.44922 4.82422 1.30469L4.82422 0L3.89453 0L3.89453 1.31641C1.83203 1.51172 0.3125 2.78906 0.3125 4.63672C0.3125 6.25391 1.47266 7.20312 3.34375 7.71094L3.89453 7.85547L3.89453 11.7188C2.75 11.6016 1.85547 11 1.76172 9.875L0 9.875C0.109375 11.8555 1.55469 13.125 3.89453 13.2734L3.89453 14.543ZM4.82422 11.7148L4.82422 8.11328C6.01953 8.4375 6.92188 8.85156 6.92188 9.85547C6.92188 10.8672 6.0625 11.5742 4.82422 11.7148ZM3.89453 6.22656C3.03516 5.98047 2.05859 5.53125 2.0625 4.53125C2.0625 3.66406 2.75781 3 3.89453 2.84375L3.89453 6.22656ZM14.6509 13.2812C17.3384 13.2812 18.9126 11.0898 18.9126 7.27734C18.9126 3.49219 17.315 1.29297 14.6509 1.29297C11.979 1.29297 10.3892 3.48828 10.3814 7.27734C10.3814 11.0859 11.9556 13.2773 14.6509 13.2812ZM14.6509 11.7656C13.0767 11.7656 12.1275 10.1875 12.1275 7.27734C12.1314 4.37891 13.0806 2.78125 14.6509 2.78125C16.2134 2.78125 17.1665 4.37891 17.1665 7.27734C17.1665 10.1875 16.2173 11.7656 14.6509 11.7656ZM21.6442 13.1992C22.2614 13.1992 22.7809 12.6914 22.7809 12.0625C22.7809 11.4414 22.2614 10.9297 21.6442 10.9297C21.0192 10.9297 20.5075 11.4414 20.5075 12.0625C20.5075 12.6914 21.0192 13.1992 21.6442 13.1992ZM28.6509 13.2812C31.3384 13.2812 32.9126 11.0898 32.9126 7.27734C32.9126 3.49219 31.315 1.29297 28.6509 1.29297C25.979 1.29297 24.3892 3.48828 24.3814 7.27734C24.3814 11.0859 25.9556 13.2773 28.6509 13.2812ZM28.6509 11.7656C27.0767 11.7656 26.1275 10.1875 26.1275 7.27734C26.1314 4.37891 27.0806 2.78125 28.6509 2.78125C30.2134 2.78125 31.1665 4.37891 31.1665 7.27734C31.1665 10.1875 30.2173 11.7656 28.6509 11.7656ZM38.9862 13.2812C41.6737 13.2812 43.2479 11.0898 43.2479 7.27734C43.2479 3.49219 41.6502 1.29297 38.9862 1.29297C36.3143 1.29297 34.7244 3.48828 34.7166 7.27734C34.7166 11.0859 36.2908 13.2773 38.9862 13.2812ZM38.9862 11.7656C37.4119 11.7656 36.4627 10.1875 36.4627 7.27734C36.4666 4.37891 37.4158 2.78125 38.9862 2.78125C40.5487 2.78125 41.5018 4.37891 41.5018 7.27734C41.5018 10.1875 40.5526 11.7656 38.9862 11.7656Z" fill="#127BF1" fill-opacity="1.000000" fill-rule="evenodd"/>
</svg>
