<svg width="60.000000" height="60.000000" viewBox="0 0 60 60" fill="none" xmlns="http://www.w3.org/2000/svg" xmlns:xlink="http://www.w3.org/1999/xlink">
	<desc>
			Created with Pixso.
	</desc>
	<defs>
		<clipPath id="clip0_123">
			<rect id="Frame 24" width="60.000000" height="60.000000" fill="white" fill-opacity="0"/>
		</clipPath>
	</defs>
	<g clip-path="url(#clip0_123)">
		<path id="Vector" d="M54.9966 14.6491L54.9966 25.7544C55.0815 31.5466 53.5396 37.2457 50.5479 42.1993C45.9072 49.5068 38.9697 55.0511 30.835 57.9538C30.6245 58.0154 30.4014 58.0154 30.1909 57.9538C22.0571 55.053 15.1201 49.5114 10.478 42.2066C8.0293 38.1728 6.55371 33.6205 6.16846 28.9126C6.14209 28.6204 6.23242 28.3298 6.41992 28.1046C6.60742 27.8794 6.87598 27.7381 7.16699 27.7118C7.45801 27.6855 7.74756 27.7763 7.97217 27.9643C8.19629 28.1523 8.3374 28.4221 8.36328 28.7143C8.71973 33.07 10.0825 37.2823 12.3442 41.0168C16.6763 47.7403 23.0454 52.8896 30.5132 55.7063C37.9766 52.8824 44.3433 47.7347 48.6816 41.0168C51.436 36.4047 52.8618 31.1165 52.8013 25.7397L52.8013 15.6333C49.7573 15.2073 40.4863 13.2463 30.5132 4.57211C20.5396 13.2463 11.2686 15.2073 8.22461 15.6333L8.22461 21.3696C8.22461 21.6617 8.10889 21.942 7.90283 22.1486C7.69727 22.3552 7.41797 22.4713 7.12695 22.4713C6.83594 22.4713 6.55664 22.3552 6.35059 22.1486C6.14502 21.942 6.0293 21.6617 6.0293 21.3696L6.0293 14.6491C6.0293 14.3619 6.14062 14.0861 6.34033 13.8803C6.54004 13.6745 6.81152 13.5551 7.09766 13.5474C7.20752 13.5474 18.2124 12.7248 29.7812 2.28055C29.9824 2.09988 30.2432 2 30.5132 2C30.7832 2 31.0435 2.09988 31.2446 2.28055C42.8501 12.7248 53.855 13.5401 53.9648 13.5474C54.2446 13.5643 54.5068 13.6877 54.6987 13.8925C54.8906 14.0974 54.9971 14.368 54.9966 14.6491ZM7.09766 26.3273C8.56104 26.3273 8.56104 23.9402 7.09766 23.9402C5.63428 23.9402 5.63428 26.3273 7.09766 26.3273ZM36.7329 45.5779C36.5181 45.6978 36.3506 45.8869 36.2563 46.1145C36.1626 46.3421 36.1479 46.5948 36.2144 46.8319C36.2812 47.0689 36.4263 47.2764 36.625 47.4207C36.8237 47.565 37.0654 47.6377 37.3105 47.6271C37.5273 47.6263 37.7397 47.5663 37.9253 47.4535C38.1104 47.3407 38.2617 47.1794 38.3623 46.9868C38.4634 46.7942 38.5098 46.5777 38.4976 46.3605C38.4849 46.1434 38.4136 45.9337 38.2915 45.7542C38.2026 45.6412 38.0928 45.5469 37.9678 45.4768C37.8433 45.4067 37.7056 45.3622 37.5635 45.3458C37.4209 45.3294 37.2769 45.3415 37.1396 45.3813C37.002 45.4211 36.8735 45.4879 36.7617 45.5779L36.7329 45.5779ZM40.3911 45.3355C42.3838 43.4861 44.1255 41.3823 45.5718 39.0778C47.9604 35.0515 49.1914 30.4399 49.1284 25.7544L49.1284 19.482C49.1284 19.2395 49.0488 19.0037 48.9023 18.8111C48.7554 18.6186 48.5493 18.48 48.3159 18.417C42.1069 16.6774 36.2876 13.7604 31.1714 9.82361C30.981 9.67883 30.7485 9.60049 30.5093 9.60049C30.27 9.60049 30.0376 9.67883 29.8472 9.82361C24.729 13.7612 18.9067 16.6782 12.6953 18.417C12.4619 18.48 12.2559 18.6186 12.1094 18.8111C11.9624 19.0037 11.8828 19.2395 11.8833 19.482L11.8833 25.7544C11.8184 30.4424 13.0493 35.0568 15.4395 39.0851C18.9961 44.5941 24.0845 48.9352 30.0737 51.5712C30.2148 51.6322 30.3667 51.6637 30.5205 51.6637C30.6738 51.6637 30.8257 51.6322 30.9668 51.5712C32.5059 50.8806 33.9927 50.0778 35.4155 49.1695C35.6523 49.0088 35.8174 48.7617 35.8755 48.4808C35.9336 48.2 35.8804 47.9074 35.7266 47.6654C35.5732 47.4233 35.332 47.2509 35.0537 47.1848C34.7754 47.1187 34.4829 47.164 34.2373 47.3112C33.0425 48.0825 31.7983 48.7744 30.5132 49.3824C25.1104 46.9012 20.5273 42.9204 17.3052 37.9099C15.1348 34.2341 14.0205 30.0269 14.0854 25.7544L14.0854 20.3193C19.998 18.5546 25.5576 15.7657 30.5132 12.0785C35.4707 15.7664 41.0327 18.5554 46.9478 20.3193L46.9478 25.7544C47.0132 30.0269 45.8984 34.2341 43.728 37.9099C42.3833 40.0496 40.7642 42.0028 38.9131 43.7197C38.7847 43.8089 38.6763 43.9247 38.5957 44.0594C38.5151 44.1941 38.4644 44.3445 38.4463 44.5006C38.4282 44.6566 38.4438 44.8147 38.4922 44.9642C38.54 45.1138 38.6191 45.2513 38.7246 45.3675C38.8296 45.4837 38.9585 45.576 39.1025 45.6382C39.2461 45.7003 39.4014 45.7309 39.5576 45.7279C39.7144 45.7249 39.8682 45.6883 40.0098 45.6206C40.1509 45.5529 40.2759 45.4557 40.3765 45.3355L40.3911 45.3355ZM39.1108 34.0393L34.5376 34.0393L34.5376 38.6297C34.5376 38.9219 34.4219 39.2021 34.2158 39.4088C34.0103 39.6154 33.731 39.7314 33.4399 39.7314L27.5859 39.7314C27.2949 39.7314 27.0156 39.6154 26.8101 39.4088C26.604 39.2021 26.4883 38.9219 26.4883 38.6297L26.4883 34.0393L21.915 34.0393C21.624 34.0393 21.3447 33.9232 21.1392 33.7166C20.9331 33.51 20.8174 33.2297 20.8174 32.9376L20.8174 27.0617C20.8174 26.7696 20.9331 26.4893 21.1392 26.2827C21.3447 26.0761 21.624 25.96 21.915 25.96L26.4883 25.96L26.4883 21.3696C26.4883 21.0774 26.604 20.7971 26.8101 20.5905C27.0156 20.3839 27.2949 20.2679 27.5859 20.2679L33.4399 20.2679C33.731 20.2679 34.0103 20.3839 34.2158 20.5905C34.4219 20.7971 34.5376 21.0774 34.5376 21.3696L34.5376 25.96L39.1108 25.96C39.4019 25.96 39.6812 26.0761 39.8867 26.2827C40.0928 26.4893 40.2085 26.7696 40.2085 27.0617L40.2085 32.9376C40.2085 33.2297 40.0928 33.51 39.8867 33.7166C39.6812 33.9232 39.4019 34.0393 39.1108 34.0393ZM38.0132 28.1635L33.4399 28.1635C33.1489 28.1635 32.8696 28.0474 32.6636 27.8408C32.458 27.6342 32.3423 27.3539 32.3423 27.0617L32.3423 22.4713L28.6836 22.4713L28.6836 27.0617C28.6836 27.3539 28.5679 27.6342 28.3623 27.8408C28.1562 28.0474 27.877 28.1635 27.5859 28.1635L23.0127 28.1635L23.0127 31.8358L27.5859 31.8358C27.877 31.8358 28.1562 31.9519 28.3623 32.1585C28.5679 32.3651 28.6836 32.6454 28.6836 32.9376L28.6836 37.528L32.3423 37.528L32.3423 32.9376C32.3423 32.6454 32.458 32.3651 32.6636 32.1585C32.8696 31.9519 33.1489 31.8358 33.4399 31.8358L38.0132 31.8358L38.0132 28.1635Z" fill="#333333" fill-opacity="1.000000" fill-rule="nonzero"/>
	</g>
</svg>
