<svg width="60.000000" height="60.000000" viewBox="0 0 60 60" fill="none" xmlns="http://www.w3.org/2000/svg" xmlns:xlink="http://www.w3.org/1999/xlink">
	<desc>
			Created with Pixso.
	</desc>
	<defs>
		<clipPath id="clip0_97">
			<rect id="Frame 22" width="60.000000" height="60.000000" fill="white" fill-opacity="0"/>
		</clipPath>
	</defs>
	<g clip-path="url(#clip0_97)">
		<path id="Vector" d="M56.7568 4.55672C56.7202 4.66435 56.6885 4.77419 56.645 4.87926C56.5352 5.14359 56.3467 5.34276 56.0894 5.45808C54.8384 6.0197 53.6333 6.67358 52.4067 7.28389C50.5396 8.21345 48.6807 9.15948 46.8149 10.0923C46.6641 10.1678 46.644 10.2179 46.7407 10.3651C48.8013 13.5071 50.3989 16.8709 51.519 20.4614C51.9976 21.9939 52.3691 23.5524 52.6279 25.137C52.9282 26.98 53.0737 28.8358 53.0273 30.7041C52.9775 32.6741 52.7378 34.6211 52.3223 36.5476C51.5083 40.3255 50.1084 43.8772 48.2378 47.2487C47.7715 48.0893 47.2793 48.9134 46.7432 49.7104C46.6367 49.8689 46.6709 49.9158 46.8252 49.9934C49.8281 51.5004 52.8286 53.012 55.8281 54.5252C56.5957 54.9125 56.7466 55.8721 56.1362 56.4469C55.7778 56.7844 55.272 56.8536 54.8008 56.6186C53.8286 56.1331 52.8589 55.6433 51.8877 55.1549C49.6191 54.0133 47.3501 52.8714 45.0825 51.7284C45.0039 51.6889 44.9282 51.671 44.8394 51.6761C44.4175 51.6995 44.0835 51.5289 43.8389 51.1884C43.7827 51.1101 43.7168 51.0588 43.6343 51.0171C39.8735 49.1272 36.1147 47.234 32.353 45.3467C26.0474 42.1828 19.7397 39.0218 13.4326 35.8604C10.2852 34.2828 7.13672 32.7067 3.98828 31.1299C3.23193 30.7509 3.01514 29.9312 3.50635 29.3085C3.63037 29.1518 3.79248 29.0485 3.96826 28.9606C7.33594 27.2747 10.7036 25.5888 14.0713 23.9017C17.2627 22.3029 20.4536 20.7026 23.6445 19.1038C25.8799 17.9835 28.1177 16.8669 30.3516 15.744C34.9731 13.421 39.5869 11.0808 44.2163 8.77396C47.7441 7.01626 51.2563 5.2289 54.7827 3.4679C55.0781 3.32036 55.3896 3.20796 55.7256 3.25336C56.2476 3.32402 56.6099 3.67768 56.7256 4.20232C56.7305 4.22392 56.7466 4.24332 56.7573 4.26347L56.7573 4.55598L56.7568 4.55672ZM27.082 19.9949C27.0205 20.0202 26.958 20.0414 26.8989 20.0711C20.3447 23.3588 13.791 26.6472 7.2373 29.9356C7.17871 29.9649 7.12061 29.996 7.03125 30.0425C13.7266 33.4012 20.394 36.7464 27.0615 40.0916C27.0537 39.9938 27.0225 39.9352 26.9888 39.8781C26.4873 39.0233 26.0415 38.1405 25.6533 37.2278C24.7861 35.186 24.2358 33.0695 24.1196 30.8447C24.0503 29.5168 24.1543 28.2039 24.4023 26.9016C24.8286 24.6654 25.6587 22.5797 26.7593 20.5961C26.8696 20.3973 27.0229 20.2201 27.0791 19.9924C27.083 19.9887 27.0874 19.9847 27.0913 19.981C27.0884 19.9858 27.085 19.9905 27.0815 19.9953L27.082 19.9949ZM50.7119 29.873C50.7173 29.0789 50.6606 28.1376 50.5674 27.1971C50.4438 25.949 50.2334 24.716 49.9561 23.4942C49.4512 21.2734 48.7202 19.128 47.7983 17.0477C46.915 15.0539 45.8809 13.1435 44.6587 11.3367C44.5918 11.2375 44.5483 11.213 44.4331 11.2712C40.6548 13.1772 36.874 15.0788 33.0938 16.9811C32.9551 17.0509 32.9355 17.1484 33.0352 17.2736C34.4321 19.0423 35.5981 20.9509 36.48 23.0293C37.2085 24.7445 37.7041 26.5242 37.8999 28.3804C38.022 29.5406 38.0117 30.7012 37.8774 31.8625C37.7402 33.0446 37.4858 34.1986 37.1196 35.3288C36.2222 38.0988 34.7949 40.5778 32.9976 42.851C32.9043 42.9685 32.9082 43.0113 33.0469 43.0809C36.835 44.9821 40.6211 46.8866 44.4053 48.7962C44.541 48.8647 44.5962 48.8376 44.6748 48.7216C45.9141 46.8888 46.9604 44.9495 47.8486 42.9245C48.7925 40.7733 49.5327 38.5532 50.0288 36.2532C50.4717 34.2001 50.7188 32.1264 50.7109 29.8734L50.7119 29.873ZM31.0381 41.4689C31.0762 41.4286 31.1025 41.4033 31.1255 41.3755C32.3833 39.8792 33.4482 38.2588 34.2441 36.4674C35.3237 34.0357 35.8379 31.5018 35.6172 28.8325C35.5127 27.5658 35.251 26.3327 34.8408 25.1329C34.0347 22.7737 32.7759 20.6737 31.1807 18.7688C31.0698 18.6359 31.019 18.6304 30.9062 18.7655C29.7075 20.2 28.6934 21.7515 27.9126 23.4543C27.0581 25.3182 26.5332 27.2685 26.4316 29.3213C26.3438 31.1002 26.5806 32.8414 27.1133 34.5413C27.9243 37.129 29.2856 39.4018 31.0381 41.4685L31.0381 41.4689Z" fill="#FFFFFF" fill-opacity="1.000000" fill-rule="nonzero"/>
	</g>
</svg>
