<svg width="86.000000" height="86.000000" viewBox="0 0 86 86" fill="none" xmlns="http://www.w3.org/2000/svg" xmlns:xlink="http://www.w3.org/1999/xlink">
	<desc>
			Created with Pixso.
	</desc>
	<defs>
		<clipPath id="clip0_183">
			<rect id="Frame 68" width="86.000000" height="86.000000" fill="white" fill-opacity="0"/>
		</clipPath>
	</defs>
	<g clip-path="url(#clip0_183)">
		<path id="Vector" d="M66.9941 46.9825L66.9775 59.9641C66.9824 65.0061 65.1484 69.8777 61.8179 73.6709C59.8179 75.8817 58.7354 78.7679 58.7891 81.745C58.7896 81.9095 58.7578 82.0726 58.6948 82.2249C58.6323 82.3771 58.54 82.5155 58.4233 82.6321C58.3071 82.7488 58.1689 82.8412 58.0161 82.9044C57.8638 82.9675 57.7007 83 57.5356 83C57.2041 83 56.8857 82.869 56.6509 82.6356C56.416 82.4023 56.2837 82.0857 56.2822 81.755C56.2358 78.1705 57.5391 74.6991 59.9336 72.0259C62.8628 68.6873 64.4756 64.4005 64.4707 59.9641L64.4839 46.98C64.5269 46.4102 64.4136 45.8394 64.1562 45.3286C63.8994 44.8179 63.5083 44.3864 63.0244 44.08C62.5864 43.8295 62.0903 43.6963 61.5854 43.6935C61.0806 43.6907 60.5835 43.8184 60.1426 44.0642C59.6616 44.3759 59.2744 44.8116 59.022 45.3252C58.7695 45.8387 58.6611 46.4109 58.7085 46.9808C58.7085 47.3124 58.5767 47.6302 58.3418 47.8647C58.1064 48.0991 57.7876 48.2308 57.4556 48.2308C57.123 48.2308 56.8042 48.0991 56.5688 47.8647C56.334 47.6302 56.2021 47.3124 56.2021 46.9808L56.2021 42.4808C56.2251 42.0581 56.1543 41.6355 55.9946 41.2432C55.8354 40.8508 55.5913 40.4983 55.2793 40.2108C54.6797 39.7103 53.9199 39.4413 53.1382 39.4525C52.7319 39.4276 52.3252 39.4884 51.9443 39.631C51.5635 39.7736 51.2173 39.9946 50.9277 40.2798C50.6387 40.5651 50.4126 40.9078 50.2651 41.286C50.1177 41.6641 50.0522 42.069 50.0723 42.4741L50.0679 46.9783C50.0679 47.3098 49.936 47.6278 49.7012 47.8622C49.4658 48.0967 49.147 48.2283 48.8149 48.2283C48.4824 48.2283 48.1636 48.0967 47.9287 47.8622C47.6934 47.6278 47.5615 47.3098 47.5615 46.9783L47.5664 42.3058C47.6016 41.7889 47.4912 41.2725 47.248 40.8147C47.0049 40.3568 46.6387 39.9757 46.1904 39.7141C45.6729 39.4275 45.0903 39.2771 44.4985 39.2771C43.9067 39.2771 43.3242 39.4275 42.8071 39.7141C42.3721 39.9666 42.0142 40.3322 41.7715 40.7717C41.5293 41.2114 41.4111 41.7085 41.4302 42.21L41.4302 46.9833C41.4302 47.3148 41.2979 47.6328 41.063 47.8672C40.8276 48.1017 40.5088 48.2333 40.1768 48.2333C39.8442 48.2333 39.5254 48.1017 39.2905 47.8672C39.0552 47.6328 38.9233 47.3148 38.9233 46.9833L38.9409 19.8167C38.9409 19.4139 38.8618 19.0151 38.7075 18.6431C38.5527 18.2709 38.3267 17.9329 38.041 17.6481C37.7554 17.3632 37.4165 17.1373 37.0435 16.9833C36.6704 16.8291 36.2705 16.7499 35.8667 16.75L35.8608 16.75C35.0483 16.7513 34.269 17.0739 33.6948 17.647C33.1201 18.2201 32.7964 18.9969 32.7954 19.8075L32.7725 54.8441C32.7725 55.1757 32.6406 55.4937 32.4058 55.728C32.1704 55.9625 31.8516 56.0941 31.5195 56.0941C31.187 56.0941 30.8682 55.9625 30.6328 55.728C30.3979 55.4937 30.2661 55.1757 30.2661 54.8441L30.272 45.855L29.6035 45.855C28.7925 45.8583 28.0156 46.1803 27.4414 46.7511C26.8672 47.3219 26.542 48.0956 26.5361 48.9042L26.5283 59.9333C26.5356 64.3848 28.1646 68.6818 31.1123 72.0242C33.5098 74.697 34.8154 78.1691 34.7715 81.755C34.77 82.0857 34.6372 82.4023 34.4023 82.6356C34.1675 82.869 33.8496 83 33.5181 83L33.5132 83C33.3481 82.9995 33.1855 82.9666 33.0337 82.9032C32.8813 82.8398 32.7437 82.7472 32.6274 82.6306C32.5117 82.514 32.4199 82.3759 32.3574 82.2239C32.2949 82.072 32.2632 81.9092 32.2637 81.745C32.3159 78.7649 31.229 75.8768 29.2241 73.6666C25.876 69.8684 24.0269 64.9856 24.022 59.9283L24.0303 48.9C24.0356 47.4265 24.626 46.015 25.6719 44.9742C26.7178 43.9335 28.1343 43.348 29.6118 43.3458L30.2725 43.3458L30.2876 19.8C30.291 18.3275 30.8789 16.9163 31.9229 15.8751C32.9668 14.834 34.3818 14.2478 35.8584 14.245L35.8691 14.245C37.3477 14.2479 38.7642 14.8352 39.8086 15.8783C40.8535 16.9214 41.4404 18.335 41.4419 19.8092L41.4302 37.6183C41.4707 37.5934 41.5137 37.5667 41.5518 37.5425C42.4507 37.0365 43.4658 36.771 44.498 36.7717C45.5303 36.7725 46.5444 37.0394 47.4429 37.5466C47.9961 37.8651 48.4854 38.2833 48.8857 38.78C49.4258 38.1952 50.0835 37.7301 50.8154 37.4152C51.5479 37.1002 52.3384 36.9423 53.1353 36.9517L53.1406 36.9517C54.5479 36.9025 55.918 37.4061 56.957 38.3542C57.9956 39.3024 58.6201 40.6193 58.6953 42.0217C58.7603 41.98 58.8257 41.9384 58.8936 41.8975C59.7148 41.4298 60.6445 41.1854 61.5903 41.1885C62.5361 41.1915 63.4644 41.442 64.2827 41.915C65.1494 42.439 65.8584 43.186 66.3354 44.0778C66.813 44.9694 67.04 45.9728 66.9941 46.9825ZM45.1392 18.5416C44.8066 18.5416 44.4878 18.6733 44.2529 18.9078C44.0176 19.1422 43.8857 19.4602 43.8857 19.7916C43.8857 20.1232 44.0176 20.4412 44.2529 20.6755C44.4878 20.9099 44.8066 21.0416 45.1392 21.0416L51.481 21.0601C51.8135 21.0601 52.1323 20.9283 52.3672 20.6938C52.6025 20.4595 52.7344 20.1415 52.7344 19.8101C52.7344 19.4785 52.6025 19.1605 52.3672 18.9261C52.1323 18.6917 51.8135 18.5601 51.481 18.5601L45.1396 18.5425L45.1392 18.5416ZM35.8643 11.8075C36.1968 11.8075 36.5156 11.6758 36.7505 11.4414C36.9854 11.2069 37.1177 10.889 37.1177 10.5575L37.1069 4.25C37.1069 3.91846 36.9746 3.60059 36.7397 3.36609C36.5044 3.13171 36.186 3 35.8535 3C35.521 3 35.2021 3.13171 34.9673 3.36609C34.7319 3.60059 34.6001 3.91846 34.6001 4.25L34.6133 10.5575C34.6133 10.7217 34.646 10.8842 34.709 11.0359C34.772 11.1875 34.8643 11.3253 34.9805 11.4414C35.0967 11.5575 35.2349 11.6495 35.3872 11.7124C35.5391 11.7751 35.7021 11.8075 35.8667 11.8075L35.8643 11.8075ZM42.4141 14.5225C42.7461 14.5227 43.064 14.3917 43.2993 14.1583L47.7979 9.69421C47.9146 9.57837 48.0073 9.44067 48.0708 9.28918C48.1338 9.13757 48.167 8.9751 48.167 8.81091C48.1675 8.64661 48.1353 8.48401 48.0728 8.33215C48.0103 8.1803 47.918 8.04224 47.8022 7.92578C47.686 7.80945 47.5479 7.71704 47.396 7.65381C47.2441 7.59058 47.0811 7.55786 46.9165 7.5575C46.7515 7.55713 46.5884 7.58911 46.4365 7.65161C46.2842 7.71411 46.1455 7.80579 46.0288 7.92163L41.5303 12.3859C41.354 12.5604 41.2339 12.7831 41.1851 13.0259C41.1362 13.2687 41.1606 13.5204 41.2549 13.7493C41.3496 13.9781 41.5107 14.1738 41.7168 14.3115C41.9233 14.4492 42.166 14.5226 42.4141 14.5225ZM27.8438 19.7883C27.8438 19.4568 27.7114 19.1389 27.4766 18.9044C27.2417 18.67 26.9229 18.5383 26.5903 18.5383L20.2534 18.5558C19.9209 18.5558 19.6021 18.6875 19.3672 18.922C19.1318 19.1564 19 19.4744 19 19.8058C19 20.1373 19.1318 20.4553 19.3672 20.6897C19.6021 20.9242 19.9209 21.0558 20.2534 21.0558L26.5903 21.0375C26.9224 21.0375 27.2412 20.9059 27.4761 20.6716C27.7114 20.4375 27.8433 20.1198 27.8438 19.7883ZM28.4287 14.1542C28.5454 14.27 28.6836 14.3618 28.8359 14.4243C28.9883 14.4867 29.1514 14.5187 29.3159 14.5183C29.4805 14.5179 29.6436 14.4852 29.7954 14.422C29.9473 14.3588 30.0854 14.2664 30.2017 14.15C30.3179 14.0336 30.4097 13.8955 30.4727 13.7437C30.5352 13.5918 30.5669 13.4292 30.5669 13.265C30.5664 13.1007 30.5337 12.9382 30.4702 12.7867C30.4067 12.6351 30.314 12.4976 30.1973 12.3817L25.7061 7.92163C25.5894 7.80591 25.4512 7.71411 25.2988 7.65173C25.1465 7.58936 24.9834 7.55737 24.8188 7.55786C24.6543 7.55823 24.4917 7.59094 24.3394 7.65417C24.1875 7.71741 24.0498 7.80981 23.9336 7.92627C23.8174 8.0426 23.7256 8.18066 23.6631 8.33252C23.6006 8.48438 23.5684 8.64697 23.5688 8.81116C23.5693 8.97534 23.6021 9.13782 23.6655 9.28931C23.729 9.4408 23.8213 9.57837 23.938 9.69421L28.4287 14.1542Z" fill="#333333" fill-opacity="1.000000" fill-rule="nonzero"/>
	</g>
</svg>
