<svg width="86.000000" height="86.000000" viewBox="0 0 86 86" fill="none" xmlns="http://www.w3.org/2000/svg" xmlns:xlink="http://www.w3.org/1999/xlink">
	<desc>
			Created with Pixso.
	</desc>
	<defs>
		<clipPath id="clip0_150">
			<rect id="Frame 68" width="86.000000" height="86.000000" fill="white" fill-opacity="0"/>
		</clipPath>
	</defs>
	<g clip-path="url(#clip0_150)">
		<path id="Vector" d="M46.5713 19.6284C46.0439 19.6284 45.5386 19.8378 45.166 20.2104C44.7935 20.5831 44.584 21.0885 44.584 21.6155L44.584 42.9999C44.584 43.5269 44.7935 44.0322 45.166 44.4049C45.5386 44.7776 46.0439 44.9869 46.5713 44.9869L56.9043 44.9869C57.4312 44.9869 57.9365 44.7776 58.3091 44.4049C58.6821 44.0322 58.8911 43.5269 58.8911 42.9999C58.8911 42.4728 58.6821 41.9674 58.3091 41.5947C57.9365 41.222 57.4312 41.0127 56.9043 41.0127L48.5581 41.0127L48.5581 21.6155C48.5581 21.0885 48.3486 20.5831 47.9761 20.2104C47.6035 19.8378 47.0981 19.6284 46.5713 19.6284Z" fill="#333333" fill-opacity="1.000000" fill-rule="nonzero"/>
		<path id="Vector" d="M15.8408 29.6007L30.3745 29.6007C30.9019 29.6007 31.4072 29.3914 31.7798 29.0187C32.1523 28.646 32.3618 28.1406 32.3618 27.6135C32.3618 27.0865 32.1523 26.5812 31.7798 26.2085C31.4072 25.8358 30.9019 25.6265 30.3745 25.6265L15.8408 25.6265C15.3135 25.6265 14.8081 25.8358 14.4355 26.2085C14.063 26.5812 13.8535 27.0865 13.8535 27.6135C13.8535 28.1406 14.063 28.646 14.4355 29.0187C14.8081 29.3914 15.3135 29.6007 15.8408 29.6007Z" fill="#333333" fill-opacity="1.000000" fill-rule="nonzero"/>
		<path id="Vector" d="M25.0942 42.9998C25.0942 42.4728 24.8848 41.9674 24.5122 41.5947C24.1396 41.222 23.6338 41.0127 23.1069 41.0127L10.5342 41.0127C10.0068 41.0127 9.50146 41.222 9.12891 41.5947C8.75635 41.9674 8.54688 42.4728 8.54688 42.9998C8.54688 43.5269 8.75635 44.0322 9.12891 44.4049C9.50146 44.7776 10.0068 44.9869 10.5342 44.9869L23.1069 44.9869C23.6338 44.9869 24.1396 44.7776 24.5122 44.4049C24.8848 44.0322 25.0942 43.5269 25.0942 42.9998Z" fill="#333333" fill-opacity="1.000000" fill-rule="nonzero"/>
		<path id="Vector" d="M32.3618 58.386C32.3618 57.859 32.1523 57.3536 31.7798 56.981C31.4072 56.6083 30.9019 56.3989 30.3745 56.3989L15.8408 56.3989C15.3135 56.3989 14.8081 56.6083 14.4355 56.981C14.063 57.3536 13.8535 57.859 13.8535 58.386C13.8535 58.9131 14.063 59.4185 14.4355 59.7911C14.8081 60.1638 15.3135 60.3732 15.8408 60.3732L30.3745 60.3732C30.9019 60.3732 31.4072 60.1638 31.7798 59.7911C32.1523 59.4185 32.3618 58.9131 32.3618 58.386Z" fill="#333333" fill-opacity="1.000000" fill-rule="nonzero"/>
		<path id="Vector" d="M46.5708 12C40.4038 11.9899 34.375 13.8285 29.2632 17.2786C28.8262 17.5731 28.5239 18.0292 28.4233 18.5465C28.3228 19.0638 28.4316 19.6 28.7261 20.037C29.021 20.4739 29.4771 20.776 29.9941 20.8767C30.5117 20.9774 31.0479 20.8684 31.4849 20.5739C35.9404 17.5671 41.1953 15.965 46.5708 15.9742C61.4731 15.9742 73.5967 28.0978 73.5967 42.9998C73.5967 57.9016 61.4731 70.0253 46.5708 70.0253C41.1953 70.0347 35.9404 68.4325 31.4849 65.4257C31.0479 65.131 30.5117 65.0221 29.9941 65.1228C29.4771 65.2235 29.0205 65.5256 28.7261 65.9626C28.4316 66.3997 28.3228 66.9358 28.4233 67.4531C28.5239 67.9703 28.8262 68.4265 29.2632 68.7211C34.375 72.171 40.4038 74.0096 46.5708 73.9995C63.6641 73.9995 77.5708 60.093 77.5708 42.9998C77.5708 25.9064 63.6641 12 46.5708 12Z" fill="#333333" fill-opacity="1.000000" fill-rule="nonzero"/>
	</g>
</svg>
