<svg width="86.000000" height="86.000000" viewBox="0 0 86 86" fill="none" xmlns="http://www.w3.org/2000/svg" xmlns:xlink="http://www.w3.org/1999/xlink">
	<desc>
			Created with Pixso.
	</desc>
	<defs>
		<clipPath id="clip0_164">
			<rect id="Frame 68" width="86.000000" height="86.000000" fill="white" fill-opacity="0"/>
		</clipPath>
	</defs>
	<g clip-path="url(#clip0_164)">
		<path id="Vector" d="M49.5527 36.1233C49.0181 36.6562 49.0181 37.5214 49.5527 38.0558C50.0869 38.5901 50.9507 38.5901 51.4849 38.0558L54.5161 35.0245C57.3765 32.1641 57.3765 27.5093 54.5161 24.6501C51.6572 21.7911 47.0039 21.7885 44.1421 24.6501L42.9995 25.7941L41.8555 24.6501C38.9951 21.7898 34.3418 21.7898 31.4814 24.6501C28.6206 27.5093 28.6206 32.1641 31.4814 35.0245L42.0332 45.5764C42.29 45.8334 42.6372 45.9769 42.9995 45.9769C43.3618 45.9769 43.71 45.8334 43.9658 45.5764L47.6201 41.922C48.1543 41.3877 48.1543 40.5226 47.6201 39.9895C47.0859 39.4552 46.2222 39.4552 45.6875 39.9895L42.9995 42.6777L33.4136 33.092C31.6206 31.2976 31.6191 28.3771 33.4136 26.5826C35.208 24.7896 38.1274 24.7896 39.9229 26.5826L42.0332 28.6927C42.5674 29.2272 43.4312 29.2272 43.9658 28.6927L46.0757 26.5826C47.8701 24.7896 50.7905 24.7896 52.585 26.5826C54.3794 28.3771 54.3784 31.2963 52.585 33.092L49.5527 36.1233Z" fill="#333333" fill-opacity="1.000000" fill-rule="nonzero"/>
		<path id="Vector" d="M71.3379 62.9047L67.7788 66.4635C65.2354 69.0068 61.8696 70.6632 58.3027 71.1293L38.4233 73.7218C34.5024 74.2329 31.1553 76.8309 29.686 80.5032L29.0356 82.1281C28.7554 82.8292 29.0957 83.6245 29.7983 83.9048C29.9648 83.9703 30.1372 84.0017 30.3052 84.0017C30.8477 84.0017 31.3604 83.6765 31.5747 83.1421L32.2241 81.5172C33.3257 78.7633 35.8374 76.8145 38.7773 76.4319L58.6567 73.8394C62.8179 73.2968 66.7432 71.3629 69.7114 68.3959L73.27 64.8372C73.8047 64.3027 73.8047 63.4391 73.27 62.9047C72.7358 62.3704 71.8706 62.3704 71.3379 62.9047Z" fill="#333333" fill-opacity="1.000000" fill-rule="nonzero"/>
		<path id="Vector" d="M82.1001 48.4971L82.9106 47.4667C84.3345 45.6544 84.3633 43.1001 82.9805 41.2566C82.1396 40.1359 80.8594 39.4047 79.4678 39.2489C78.0806 39.0972 76.6675 39.525 75.5991 40.4325L70.9399 44.3931C70.8564 44.2563 70.7759 44.1183 70.6802 43.9912C69.8398 42.8706 68.5591 42.1394 67.168 41.9836C66.3823 41.8961 65.5991 42.0137 64.8682 42.2788L64.8682 25.6288L68.2383 27.7567C68.4595 27.8975 68.7124 27.9685 68.9663 27.9685C69.1934 27.9685 69.4204 27.9125 69.6265 27.7991C70.0625 27.5585 70.333 27.0994 70.333 26.6019L70.333 19.7686C70.333 19.2998 70.0928 18.8639 69.6963 18.6124L59.5093 12.1782C58.8711 11.7764 58.0278 11.9663 57.6235 12.6046C57.2202 13.2428 57.4116 14.0874 58.0498 14.4906L67.6001 20.5216L67.6001 24.1213L44.3667 9.44763L44.3667 5.84778L53.4263 11.5701C54.0645 11.9718 54.9077 11.7819 55.3125 11.1437C55.7153 10.5054 55.5239 9.66077 54.8857 9.25769L43.73 2.21118C43.2842 1.92957 42.7158 1.92957 42.2705 2.21118L16.3037 18.6111C15.9072 18.8639 15.667 19.2998 15.667 19.7686L15.667 26.6019C15.667 27.0994 15.9375 27.5585 16.3735 27.7991C16.8081 28.0382 17.3398 28.0232 17.7632 27.7581L21.1338 25.6288L21.1338 53.868C21.1338 54.6224 21.7456 55.2347 22.5 55.2347C23.2544 55.2347 23.8667 54.6224 23.8667 53.868L23.8667 23.9027L43 11.8187L62.1333 23.9027L62.1333 59.4016L53.0767 59.4016C53.4468 58.6199 53.6025 57.7426 53.5151 56.8638C53.2734 54.4543 51.0977 52.5684 48.561 52.5684L39.3755 52.5684C34.8208 52.5684 31.0786 53.4266 27.6006 55.2689L24.7388 56.7831C14.4082 62.2524 6.3667 71.256 2.09619 82.136C1.81982 82.8384 2.16553 83.6311 2.86816 83.9071C3.03076 83.9714 3.2002 84.0015 3.36719 84.0015C3.91211 84.0015 4.42773 83.6721 4.63916 83.1337C8.67236 72.8618 16.2642 64.3625 26.0181 59.198L28.8799 57.6837C31.9492 56.0588 35.2837 55.3016 39.3755 55.3016L48.561 55.3016C49.7104 55.3016 50.6929 56.1067 50.7954 57.1357C50.854 57.7275 50.6709 58.2919 50.2773 58.7266C49.8892 59.1556 49.3345 59.4016 48.7563 59.4016L37.1396 59.4016C36.3853 59.4016 35.7729 60.0139 35.7729 60.7683C35.7729 61.5227 36.3853 62.135 37.1396 62.135L63.1064 62.135C63.4263 62.135 63.7349 62.0228 63.981 61.8179L77.373 50.6577C78.2734 49.9102 79.5908 49.8828 80.3711 50.6003C80.8262 51.0186 81.0845 51.5817 81.0981 52.1857C81.1108 52.7898 80.8823 53.3569 80.4561 53.7847L75.2012 59.0381C74.667 59.571 74.667 60.4362 75.2012 60.9706C75.7354 61.5049 76.5991 61.5049 77.1338 60.9706L82.3887 55.7172C83.333 54.7728 83.8589 53.4635 83.8301 52.127C83.8018 50.7712 83.229 49.5139 82.2192 48.5873C82.1821 48.5531 82.1382 48.5299 82.1001 48.4971ZM18.4004 20.5216L41.6333 5.84778L41.6333 9.44763L18.4004 24.1228L18.4004 20.5216ZM65.0688 45.2458C65.5703 44.8195 66.2085 44.6226 66.8633 44.6978C67.5181 44.7716 68.0972 45.1023 68.4937 45.6299C68.625 45.8033 68.7275 45.9988 68.8037 46.2065L64.8667 49.5521L64.8667 45.418L65.0688 45.2458ZM75.6235 48.5586L64.8667 57.5225L64.8667 53.1382L77.3687 42.5125C77.8701 42.0861 78.5073 41.8906 79.1631 41.9645C79.8179 42.0382 80.3975 42.369 80.7935 42.8965C81.4346 43.7521 81.4224 44.9384 80.7622 45.7775L79.4951 47.3887C78.1558 47.2452 76.748 47.6224 75.6235 48.5586Z" fill="#333333" fill-opacity="1.000000" fill-rule="nonzero"/>
	</g>
</svg>
