<svg width="68.953613" height="71.830078" viewBox="0 0 68.9536 71.8301" fill="none" xmlns="http://www.w3.org/2000/svg" xmlns:xlink="http://www.w3.org/1999/xlink">
	<desc>
			Created with Pixso.
	</desc>
	<defs/>
	<path id="Vector" d="M39.4854 2.42535L42.5488 6.2774C42.8945 6.72046 43.3301 7.02081 43.8105 7.17853C44.2983 7.33618 44.8315 7.3512 45.3721 7.20105L50.1104 5.87946C51.0718 5.60913 52.0254 5.56409 52.9561 5.72931C53.895 5.90198 54.7808 6.27747 55.5845 6.86316C56.3955 7.44885 57.0259 8.16968 57.4766 9.00317C57.9194 9.83667 58.1748 10.7678 58.2124 11.7739L58.4229 16.6923C58.4453 17.2404 58.6255 17.7435 58.9258 18.1565C59.2188 18.5695 59.6465 18.8924 60.165 19.0876L64.7754 20.7996C65.7139 21.1525 66.5176 21.6782 67.1704 22.354C67.8315 23.0373 68.3193 23.8708 68.6274 24.8169C68.9351 25.763 69.0254 26.7241 68.8975 27.6628C68.77 28.6014 68.4248 29.5024 67.8765 30.3284L65.1582 34.4283C64.8506 34.8938 64.6929 35.4044 64.6929 35.915C64.6929 36.4257 64.8506 36.9362 65.1582 37.4018L67.8765 41.5016C68.4248 42.3276 68.77 43.2287 68.8975 44.1673C69.0254 45.1059 68.9351 46.0671 68.6274 47.0132C68.3193 47.9593 67.8315 48.7928 67.1704 49.4761C66.5176 50.1519 65.7139 50.6775 64.7754 51.0305L60.165 52.7425C59.6465 52.9377 59.2188 53.2606 58.9258 53.6736C58.6255 54.0865 58.4453 54.5897 58.4229 55.1378L58.2124 60.0562C58.1748 61.0623 57.9194 61.9934 57.4766 62.8269C57.0259 63.6604 56.3955 64.3812 55.5845 64.9669C54.7808 65.5526 53.895 65.9281 52.9561 66.1008C52.0254 66.266 51.0718 66.2209 50.1104 65.9506L45.3721 64.629C44.8315 64.4789 44.2983 64.4939 43.8105 64.6516C43.3301 64.8093 42.8945 65.1096 42.5488 65.5526L39.4854 69.4047C38.8696 70.1857 38.1187 70.7864 37.2627 71.1993C36.4067 71.6199 35.4683 71.8301 34.4771 71.8301C33.4858 71.8301 32.5469 71.6199 31.6909 71.1993C30.835 70.7864 30.084 70.1857 29.4683 69.4047L26.4048 65.5526C26.0596 65.1096 25.624 64.8093 25.1436 64.6516C24.6553 64.4939 24.1221 64.4789 23.5815 64.629L18.8433 65.9506C17.8823 66.2209 16.9287 66.266 15.9976 66.1008C15.0591 65.9281 14.1729 65.5526 13.3696 64.9669C12.5586 64.3812 11.9277 63.6604 11.4771 62.8269C11.0342 61.9934 10.7788 61.0623 10.7412 60.0562L10.5312 55.1378C10.5083 54.5897 10.3281 54.0865 10.0278 53.6736C9.73486 53.2606 9.30713 52.9377 8.78906 52.7425L4.17871 51.0305C3.23975 50.6775 2.43652 50.1519 1.7832 49.4761C1.12256 48.7928 0.634277 47.9593 0.32666 47.0132C0.0185547 46.0671 -0.0712891 45.1059 0.0561523 44.1673C0.183594 43.2287 0.529297 42.3276 1.07715 41.5016L3.79541 37.4018C4.10352 36.9362 4.26123 36.4257 4.26123 35.915C4.26123 35.4044 4.10352 34.8938 3.79541 34.4283L1.07715 30.3284C0.529297 29.5024 0.183594 28.6014 0.0561523 27.6628C-0.0712891 26.7241 0.0185547 25.763 0.32666 24.8169C0.634277 23.8708 1.12256 23.0373 1.7832 22.354C2.43652 21.6782 3.23975 21.1525 4.17871 20.7996L8.78906 19.0876C9.30713 18.8924 9.73486 18.5695 10.0278 18.1565C10.3281 17.7435 10.5083 17.2404 10.5312 16.6923L10.7412 11.7739C10.7788 10.7678 11.0342 9.83667 11.4771 9.00317C11.9277 8.16968 12.5586 7.44885 13.3696 6.86316C14.1729 6.27747 15.0591 5.90198 15.9976 5.72931C16.9287 5.56409 17.8823 5.60913 18.8433 5.87946L23.5815 7.20105C24.1221 7.3512 24.6553 7.33618 25.1436 7.17853C25.624 7.02081 26.0596 6.72046 26.4048 6.2774L29.4683 2.42535C30.084 1.64447 30.835 1.04376 31.6909 0.630737C32.5469 0.210266 33.4858 0 34.4771 0C35.4683 0 36.4067 0.210266 37.2627 0.630737C38.1187 1.04376 38.8696 1.64447 39.4854 2.42535ZM21.7417 37.3643C21.0283 36.6208 21.0508 35.4495 21.7866 34.7361C22.5303 34.0228 23.709 34.0453 24.415 34.7887L30.4297 41.0662L44.5615 26.7917C45.2822 26.0634 46.4609 26.0634 47.1895 26.7842C47.9102 27.5051 47.918 28.684 47.1895 29.4124L31.6987 45.0684C30.9551 45.7817 29.7837 45.7592 29.0703 45.0158L21.7417 37.3643ZM34.4771 14.312C40.439 14.312 45.8379 16.7298 49.75 20.642C53.6621 24.5541 56.0801 29.953 56.0801 35.915C56.0801 41.8771 53.6621 47.276 49.75 51.1881C45.8379 55.1003 40.439 57.5181 34.4771 57.5181C28.5146 57.5181 23.1157 55.1003 19.2036 51.1881C15.2915 47.276 12.874 41.8771 12.874 35.915C12.874 29.953 15.2915 24.5541 19.2036 20.642C23.1157 16.7298 28.5146 14.312 34.4771 14.312ZM47.1143 23.2776C43.8779 20.0413 39.4102 18.0439 34.4771 18.0439C29.5435 18.0439 25.0757 20.0413 21.8394 23.2776C18.603 26.5139 16.606 30.9817 16.606 35.915C16.606 40.8484 18.603 45.3162 21.8394 48.5525C25.0757 51.7888 29.5435 53.7862 34.4771 53.7862C39.4102 53.7862 43.8779 51.7888 47.1143 48.5525C50.3506 45.3162 52.3481 40.8484 52.3481 35.915C52.3481 30.9817 50.3506 26.5139 47.1143 23.2776ZM39.6357 8.59766L36.5796 4.7381C36.3091 4.40021 35.9937 4.1449 35.6484 3.97223C35.3105 3.81451 34.9126 3.72443 34.4771 3.72443C34.0415 3.72443 33.6436 3.81451 33.3057 3.97223C32.96 4.1449 32.6445 4.40021 32.3745 4.7381L29.3184 8.59766C28.5073 9.6189 27.4561 10.3397 26.292 10.7152C25.1206 11.0981 23.8516 11.1282 22.5903 10.7753L17.8521 9.46118C17.4316 9.34106 17.0264 9.31854 16.6509 9.38611C16.2827 9.45367 15.9072 9.61139 15.5547 9.87421C15.2017 10.1295 14.939 10.4299 14.751 10.7678C14.5708 11.1057 14.4658 11.4961 14.4507 11.9166L14.2402 16.835C14.188 18.149 13.7598 19.3504 13.0464 20.3416C12.3257 21.3328 11.312 22.1062 10.0806 22.5642L5.47021 24.2838C5.07227 24.434 4.72656 24.6517 4.46387 24.9295C4.20117 25.2073 3.99854 25.5528 3.86328 25.9658C3.72803 26.3787 3.68311 26.7842 3.73535 27.1672C3.78809 27.5426 3.93799 27.9181 4.17871 28.2785L6.89648 32.3784C7.625 33.4672 7.98535 34.6911 7.98535 35.915C7.98535 37.139 7.625 38.3629 6.89648 39.4517L4.17871 43.5516C3.93799 43.912 3.78809 44.2875 3.73535 44.6629C3.68311 45.0458 3.72803 45.4514 3.86328 45.8643C3.99854 46.2773 4.20117 46.6227 4.46387 46.9006C4.72656 47.1783 5.07227 47.3961 5.47021 47.5463L10.0806 49.2659C11.312 49.7239 12.3257 50.4973 13.0464 51.4885C13.7598 52.4797 14.188 53.6811 14.2402 54.9951L14.4507 59.9135C14.4658 60.334 14.5708 60.7244 14.751 61.0623C14.939 61.4002 15.2017 61.7006 15.5547 61.9559C15.9072 62.2187 16.2827 62.3764 16.6509 62.444C17.0264 62.5115 17.4316 62.489 17.8521 62.3689L22.5903 61.0548C23.8516 60.7019 25.1284 60.7319 26.292 61.1149C27.4561 61.4904 28.5073 62.2112 29.3184 63.2324L32.3745 67.092C32.6445 67.4299 32.96 67.6852 33.3057 67.8578C33.6436 68.0156 34.0415 68.1057 34.4771 68.1057C34.9126 68.1057 35.3105 68.0156 35.6484 67.8578C35.9937 67.6852 36.3091 67.4299 36.5796 67.092L39.6357 63.2324C40.4463 62.2112 41.4976 61.4904 42.6616 61.1149C43.833 60.7319 45.1021 60.7019 46.3633 61.0548L51.1016 62.3689C51.522 62.489 51.9277 62.5115 52.3032 62.444C52.6709 62.3764 53.0464 62.2187 53.3994 61.9559C53.7524 61.7006 54.0151 61.4002 54.2026 61.0623C54.3828 60.7244 54.4883 60.334 54.5029 59.9135L54.7134 54.9951C54.7661 53.6811 55.1938 52.4797 55.9072 51.4885C56.6279 50.4973 57.6416 49.7239 58.873 49.2659L63.4839 47.5463C63.8818 47.3961 64.2271 47.1783 64.4897 46.9006C64.7529 46.6227 64.9556 46.2773 65.0908 45.8643C65.2256 45.4514 65.271 45.0458 65.2183 44.6629C65.1655 44.2875 65.0156 43.912 64.7754 43.5516L62.0571 39.4517C61.3286 38.3629 60.9683 37.139 60.9683 35.915C60.9683 34.6911 61.3286 33.4672 62.0571 32.3784L64.7754 28.2785C65.0156 27.9181 65.1655 27.5426 65.2183 27.1672C65.271 26.7842 65.2256 26.3787 65.0908 25.9658C64.9556 25.5528 64.7529 25.2073 64.4897 24.9295C64.2271 24.6517 63.8818 24.434 63.4839 24.2838L58.873 22.5642C57.6416 22.1062 56.6279 21.3328 55.9072 20.3416C55.1938 19.3504 54.7661 18.149 54.7134 16.835L54.5029 11.9166C54.4883 11.4961 54.3828 11.1057 54.2026 10.7678C54.0151 10.4299 53.7524 10.1295 53.3994 9.87421C53.0464 9.61139 52.6709 9.45367 52.3032 9.38611C51.9277 9.31854 51.522 9.34106 51.1016 9.46118L46.3633 10.7753C45.1021 11.1282 43.8257 11.0981 42.6616 10.7152C41.4976 10.3397 40.4463 9.6189 39.6357 8.59766Z" fill="#FFFFFF" fill-opacity="1.000000" fill-rule="nonzero"/>
</svg>
