<svg width="86.000000" height="86.000000" viewBox="0 0 86 86" fill="none" xmlns="http://www.w3.org/2000/svg" xmlns:xlink="http://www.w3.org/1999/xlink">
	<desc>
			Created with Pixso.
	</desc>
	<defs>
		<clipPath id="clip0_175">
			<rect id="Frame 68" width="86.000000" height="86.000000" fill="white" fill-opacity="0"/>
		</clipPath>
	</defs>
	<g clip-path="url(#clip0_175)">
		<path id="Vector" d="M3.00391 56.1831C2.98926 55.9746 3.0166 55.7653 3.08447 55.5677C3.15234 55.3701 3.25977 55.1884 3.3999 55.0332C3.54004 54.8782 3.70996 54.7531 3.8999 54.6654C4.08936 54.5778 4.29492 54.5293 4.50391 54.5231C6.42383 54.5231 6.50391 57.6831 4.50391 57.6831C4.1084 57.6754 3.73145 57.5149 3.45166 57.2352C3.17236 56.9556 3.01172 56.5785 3.00391 56.1831ZM82.7842 57.5231C82.7485 58.2987 82.5459 59.0576 82.1904 59.7479C81.835 60.4381 81.3345 61.0437 80.7241 61.5231L63.624 74.7631C60.5312 77.1239 56.7446 78.3965 52.854 78.3831C52.0239 78.3828 51.1953 78.3226 50.374 78.2031L22.5039 74.2031C22.3843 75.0337 21.9697 75.7936 21.3364 76.3442C20.7031 76.8949 19.8931 77.1997 19.0542 77.2031L4.50391 77.2031C4.10596 77.2031 3.72461 77.045 3.44336 76.7638C3.16211 76.4824 3.00391 76.101 3.00391 75.7031L3.00391 61.2231C3.00391 60.8253 3.16211 60.4437 3.44336 60.1625C3.72461 59.8811 4.10596 59.7231 4.50391 59.7231C4.90186 59.7231 5.2832 59.8811 5.56445 60.1625C5.8457 60.4437 6.00391 60.8253 6.00391 61.2231L6.00391 74.2231L19.0542 74.2231C19.1865 74.2231 19.314 74.1704 19.4077 74.0767C19.5015 73.9829 19.5542 73.8557 19.5542 73.7231L19.5542 49.3831C19.5542 49.2505 19.5015 49.1233 19.4077 49.0295C19.314 48.9358 19.1865 48.8831 19.0542 48.8831L6.00391 48.8831L6.00391 51.0331C6.00391 51.4309 5.8457 51.8125 5.56445 52.0938C5.2832 52.3751 4.90186 52.5331 4.50391 52.5331C4.10596 52.5331 3.72461 52.3751 3.44336 52.0938C3.16211 51.8125 3.00391 51.4309 3.00391 51.0331L3.00391 47.3831C3.00391 46.9852 3.16211 46.6038 3.44336 46.3224C3.72461 46.0411 4.10596 45.8831 4.50391 45.8831L19.0542 45.8831C19.9824 45.8831 20.8726 46.2518 21.5288 46.9082C22.1851 47.5646 22.5542 48.4548 22.5542 49.3831L22.5542 49.5731L28.5542 49.0331C30.0996 48.8053 31.6621 48.7117 33.2241 48.7531C34.6685 48.8763 36.0786 49.2627 37.3838 49.8931C38.5503 50.4415 39.8252 50.7218 41.1138 50.7131C43.6641 50.7131 46.1138 50.7131 47.9238 52.7131C48.501 53.3505 48.9385 54.1013 49.209 54.9175C49.4795 55.7336 49.5762 56.5973 49.4941 57.4531C49.4097 58.3313 49.1353 59.1807 48.6895 59.9423C48.2441 60.7039 47.6382 61.3593 46.9141 61.8632L53.6641 63.2332C54.2358 63.3467 54.8296 63.2583 55.3438 62.9832L74.6841 52.5231C75.7026 51.9513 76.877 51.7188 78.0366 51.8589C79.1963 51.9991 80.2812 52.505 81.1338 53.3031C81.6953 53.8451 82.1333 54.5017 82.418 55.2281C82.7026 55.9547 82.8276 56.734 82.7842 57.5131L82.7842 57.5231ZM79.7842 57.3632C79.8027 57.0117 79.7446 56.6604 79.6133 56.3339C79.4819 56.0073 79.2808 55.7135 79.0239 55.4731C78.6206 55.1107 78.1123 54.8862 77.5732 54.8323C77.0337 54.7783 76.4907 54.8977 76.0239 55.1731L56.7441 65.623C55.6099 66.2346 54.2969 66.4292 53.0342 66.1731L37.5142 63.0231C37.1162 62.9833 36.7505 62.7871 36.4971 62.4777C36.2441 62.1682 36.124 61.7709 36.1641 61.373C36.2036 60.9752 36.3999 60.6095 36.7095 60.3563C37.0186 60.1031 37.416 59.9833 37.814 60.0231L43.144 60.0231C43.9526 60.043 44.7397 59.7644 45.356 59.2405C45.9722 58.7167 46.3735 57.9843 46.4839 57.1831C46.5273 56.7445 46.478 56.3018 46.3403 55.8832C46.2021 55.4646 45.978 55.0796 45.6821 54.7528C45.3867 54.426 45.0259 54.1648 44.623 53.9857C44.2202 53.8066 43.7847 53.7137 43.3438 53.7131L41.084 53.7131C39.355 53.7148 37.647 53.3323 36.084 52.5931C34.8975 52.0237 33.6001 51.7231 32.2842 51.7131L22.584 52.5831L22.584 71.1931L50.8037 75.2831C52.7378 75.5613 54.7075 75.4489 56.5967 74.9524C58.4863 74.4561 60.2568 73.5858 61.8037 72.3931L78.9141 59.1531C79.1821 58.939 79.4019 58.6707 79.5586 58.3655C79.7153 58.0604 79.8057 57.7256 79.8237 57.3831L79.7842 57.3632ZM45.9141 44.6132C46.2427 45.0024 46.6519 45.3154 47.1143 45.5302C47.5762 45.7448 48.0796 45.8561 48.5889 45.8561C49.0986 45.8561 49.6016 45.7448 50.064 45.5302C50.5259 45.3154 50.9355 45.0024 51.2642 44.6132L64.7041 28.6831C66.8442 26.4883 68.0713 23.5629 68.1377 20.498C68.2041 17.4332 67.105 14.4574 65.062 12.1719C63.0186 9.88635 60.1846 8.46155 57.1313 8.18518C54.0781 7.90881 51.0342 8.80151 48.6138 10.6831C46.8594 9.25024 44.7324 8.3479 42.4824 8.08215C40.2329 7.81641 37.9541 8.19836 35.9141 9.18311C35.7275 9.26355 35.5591 9.3811 35.4194 9.52856C35.2798 9.67603 35.1714 9.85034 35.1011 10.0409C35.0308 10.2314 34.9995 10.4343 35.0103 10.6372C35.0205 10.8401 35.0723 11.0388 35.1616 11.2212C35.251 11.4036 35.3765 11.5659 35.5308 11.6982C35.6851 11.8306 35.8643 11.9303 36.0581 11.9913C36.252 12.0522 36.4561 12.0732 36.6582 12.0529C36.8604 12.0326 37.0562 11.9714 37.2339 11.873C38.9268 11.0809 40.8237 10.8354 42.6626 11.1705C44.501 11.5056 46.1895 12.4048 47.4941 13.743C47.7749 14.021 48.1538 14.1768 48.5488 14.1768C48.9438 14.1768 49.3232 14.021 49.604 13.743C51.0063 12.3129 52.8418 11.3854 54.8252 11.1045C56.8086 10.8235 58.8291 11.205 60.5737 12.1895C62.3184 13.174 63.689 14.7065 64.4741 16.5496C65.2588 18.3927 65.4136 20.4431 64.9141 22.3831C64.1938 25.3831 61.9141 27.6431 59.9141 29.8131C57.5439 32.3831 55.354 35.123 53.104 37.8131L49.104 42.5431C48.874 42.8131 48.5142 42.9832 48.2441 42.6631L46.6538 40.7731C43.4941 36.8231 40.1338 33.0531 36.8838 29.1731C35.5039 27.5331 33.7739 25.9331 32.8838 23.9631C31.9897 22.0028 31.813 19.7906 32.3838 17.7131C32.4434 17.5214 32.4634 17.3196 32.4434 17.1199C32.4233 16.9202 32.3633 16.7266 32.2666 16.5504C32.1704 16.3744 32.0396 16.2194 31.8823 16.0947C31.7251 15.97 31.5444 15.8782 31.3511 15.8246C31.1577 15.7711 30.9551 15.757 30.7563 15.783C30.5571 15.809 30.3652 15.8746 30.1924 15.9762C30.019 16.0776 29.8682 16.2129 29.748 16.3739C29.6284 16.5348 29.542 16.7181 29.4941 16.9131C28.9229 18.9707 28.9053 21.1426 29.4424 23.2092C29.9795 25.276 31.0532 27.1642 32.5542 28.6831L45.9141 44.6132ZM32.9141 14.8831C33.2246 14.8876 33.5293 14.796 33.7861 14.6208C34.043 14.4457 34.2397 14.1956 34.3491 13.9047C34.4585 13.6136 34.4751 13.296 34.3975 12.995C34.3193 12.6941 34.1509 12.4246 33.9141 12.2231C33.5977 11.9744 33.1968 11.8593 32.7969 11.9022C32.397 11.9452 32.0298 12.1429 31.7739 12.4531C31.5972 12.6705 31.4854 12.9336 31.4512 13.2118C31.417 13.49 31.4619 13.7722 31.5811 14.026C31.7002 14.2798 31.8882 14.4949 32.124 14.6465C32.3599 14.7981 32.6338 14.8801 32.9141 14.8831ZM48.5439 18.8831C48.146 18.8831 47.7646 19.0411 47.4834 19.3224C47.2021 19.6038 47.0439 19.9852 47.0439 20.3831L47.0439 24.3831L43.0439 24.3831C42.646 24.3831 42.2646 24.5411 41.9834 24.8224C41.7021 25.1038 41.5439 25.4852 41.5439 25.8831C41.5439 26.2809 41.7021 26.6625 41.9834 26.9437C42.2646 27.2251 42.646 27.3831 43.0439 27.3831L47.0439 27.3831L47.0439 31.3831C47.0439 31.7809 47.2021 32.1625 47.4834 32.4437C47.7646 32.7251 48.146 32.8831 48.5439 32.8831C48.9419 32.8831 49.3232 32.7251 49.6045 32.4437C49.8857 32.1625 50.0439 31.7809 50.0439 31.3831L50.0439 27.3831L54.0439 27.3831C54.4419 27.3831 54.8232 27.2251 55.1045 26.9437C55.3857 26.6625 55.5439 26.2809 55.5439 25.8831C55.5439 25.4852 55.3857 25.1038 55.1045 24.8224C54.8232 24.5411 54.4419 24.3831 54.0439 24.3831L50.0439 24.3831L50.0439 20.3831C50.0361 19.9939 49.8774 19.623 49.6011 19.3488C49.3252 19.0745 48.9531 18.9182 48.564 18.9131L48.5439 18.8831Z" fill="#333333" fill-opacity="1.000000" fill-rule="nonzero"/>
	</g>
</svg>
